<svg width="31" height="29" viewBox="0 0 31 29" fill="none" xmlns="http://www.w3.org/2000/svg">
<path d="M14.9973 0.269729C18.9748 0.198204 22.8117 1.63215 25.6637 4.25611C28.5158 6.88007 30.1494 10.4791 30.2053 14.2615C30.2611 18.0438 28.7346 21.6997 25.9616 24.4248C23.1886 27.1499 19.3961 28.721 15.4186 28.7926C11.441 28.8641 7.60423 27.4302 4.75218 24.8062C1.90014 22.1822 0.266492 18.5832 0.210627 14.8008C0.154762 11.0185 1.68126 7.36261 4.4543 4.6375C7.22734 1.91239 11.0198 0.341254 14.9973 0.269729ZM8.63345 13.7578C8.38486 13.7623 8.14783 13.8605 7.97452 14.0308C7.8012 14.2011 7.70579 14.4296 7.70929 14.666C7.71278 14.9024 7.81488 15.1273 7.99313 15.2913C8.17139 15.4553 8.41119 15.5449 8.65978 15.5405L19.5197 15.3452L15.5513 19.2432C15.3778 19.4137 15.2823 19.6425 15.2857 19.8792C15.2892 20.1159 15.3915 20.3411 15.57 20.5053C15.7484 20.6695 15.9885 20.7593 16.2374 20.7548C16.4864 20.7503 16.7237 20.652 16.8972 20.4815L22.4422 15.0323C22.5283 14.9479 22.5961 14.8483 22.6417 14.7392C22.6874 14.63 22.71 14.5135 22.7083 14.3963C22.7065 14.279 22.6805 14.1634 22.6317 14.0559C22.5828 13.9485 22.5121 13.8514 22.4236 13.7702L16.7206 8.52326C16.5421 8.35906 16.302 8.26932 16.0531 8.2738C15.8042 8.27827 15.5669 8.37659 15.3933 8.54713C15.2198 8.71766 15.1243 8.94644 15.1278 9.18314C15.1313 9.41984 15.2335 9.64506 15.412 9.80926L19.4934 13.5625L8.63345 13.7578Z" fill="#449342"/>
</svg>